<svg width="18" height="18" viewBox="0 0 24 24" fill="#757185" xmlns="http://www.w3.org/2000/svg">
  <path d="M12 0.297C5.373 0.297 0 5.67 0 12.297c0 5.287 3.438 9.773 8.207 11.387 0.6 0.113 0.793-0.26 0.793-0.577 0-0.285-0.01-1.04-0.016-2.04-3.338 0.725-4.042-1.61-4.042-1.61-0.546-1.387-1.333-1.757-1.333-1.757-1.09-0.745 0.083-0.73 0.083-0.73 1.204 0.085 1.838 1.237 1.838 1.237 1.07 1.834 2.807 1.304 3.492 0.997 0.108-0.775 0.418-1.305 0.76-1.604-2.665-0.303-5.467-1.332-5.467-5.93 0-1.31 0.469-2.382 1.236-3.222-0.124-0.303-0.536-1.523 0.117-3.176 0 0 1.008-0.323 3.301 1.23a11.51 11.51 0 0 1 3.003-0.404c1.019 0.005 2.045 0.138 3.003 0.404 2.291-1.553 3.297-1.23 3.297-1.23 0.655 1.653 0.243 2.873 0.119 3.176 0.77 0.84 1.233 1.912 1.233 3.222 0 4.61-2.807 5.624-5.479 5.92 0.429 0.37 0.823 1.102 0.823 2.222 0 1.604-0.015 2.896-0.015 3.289 0 0.32 0.19 0.694 0.8 0.576C20.565 22.066 24 17.583 24 12.297 24 5.67 18.627 0.297 12 0.297z"/>
</svg>
